<svg width="256" height="256" viewBox="0 0 256 256" fill="none" xmlns="http://www.w3.org/2000/svg" role="img" aria-labelledby="title desc">
  <title id="title">Асистент лікаря symbol</title>
  <desc id="desc">Modular A logo mark without container frame.</desc>
  <rect width="256" height="256" fill="white"/>
  <path d="M111 55H169C178 55 184 64 181 72L156 136C153 144 146 149 137 149H80C71 149 65 140 68 132L93 68C96 60 103 55 111 55Z" fill="#0F172A"/>
  <path d="M80 160H135C144 160 150 169 147 177L136 205C133 213 126 218 117 218H62C53 218 47 209 50 201L61 173C64 165 71 160 80 160Z" fill="#0F172A"/>
  <path d="M171 93L218 199C222 208 216 218 206 218H158C151 218 145 214 142 207L118 154C116 150 116 145 118 141L151 95C156 87 168 85 171 93Z" fill="#14B8A6"/>
</svg>
