<svg width="512" height="112" viewBox="0 0 512 112" fill="none" xmlns="http://www.w3.org/2000/svg" role="img" aria-labelledby="title desc">
  <title id="title">Асистент лікаря horizontal logo</title>
  <desc id="desc">Horizontal logo for the Asystent Likarya website header without mark container.</desc>
  <rect width="512" height="112" fill="white"/>
  <path d="M43 21H69C75 21 79 27 77 32L66 62C64 67 59 70 53 70H27C21 70 17 64 19 59L30 29C32 24 37 21 43 21Z" fill="#0F172A"/>
  <path d="M28 75H55C61 75 65 81 63 86L59 96C57 101 52 104 46 104H19C13 104 9 98 11 93L15 83C17 78 22 75 28 75Z" fill="#0F172A"/>
  <path d="M79 38L102 91C105 98 101 104 94 104H72C67 104 63 101 61 96L50 70C49 67 49 64 51 61L66 40C69 35 77 33 79 38Z" fill="#14B8A6"/>
  <text x="120" y="51" fill="#0F172A" font-family="Inter, Manrope, Arial, sans-serif" font-size="28" font-weight="750" letter-spacing="-0.4">Асистент лікаря</text>
  <text x="121" y="78" fill="#64748B" font-family="Inter, Manrope, Arial, sans-serif" font-size="14" font-weight="600">Цифровий робочий простір лікаря</text>
</svg>
